<?xml version="1.0" encoding="UTF-8" standalone="no"?>
<svg
   xmlns:dc="http://purl.org/dc/elements/1.1/"
   xmlns:cc="http://creativecommons.org/ns#"
   xmlns:rdf="http://www.w3.org/1999/02/22-rdf-syntax-ns#"
   xmlns:svg="http://www.w3.org/2000/svg"
   xmlns="http://www.w3.org/2000/svg"
   viewBox="0 0 4000 4000"
   height="4000"
   width="4000"
   xml:space="preserve"
   id="svg2"
   version="1.1"><metadata
     id="metadata8"><rdf:RDF><cc:Work
         rdf:about=""><dc:format>image/svg+xml</dc:format><dc:type
           rdf:resource="http://purl.org/dc/dcmitype/StillImage" /></cc:Work></rdf:RDF></metadata><defs
     id="defs6" /><g
     transform="matrix(1.3333333,0,0,-1.3333333,0,4000)"
     id="g10"><g
       transform="scale(0.1)"
       id="g12"><g
         transform="scale(1.84049)"
         id="g14"><path
           id="path16"
           style="fill:#ffffff;fill-opacity:1;fill-rule:nonzero;stroke:none"
           d="M 0,16300 H 16300 V 0 H 0 v 16300" /></g><g
         transform="scale(1.64366)"
         id="g18"><path
           id="path20"
           style="fill:#171514;fill-opacity:1;fill-rule:nonzero;stroke:none"
           d="m 12203.3,16300 3553.3,-0.2 c -1.5,-315.4 -0.1,-630.7 4,-946 l -2961.6,2.1 c -76.8,150.6 -174.6,290.2 -266.9,431.5 l -328.8,512.6" /></g><g
         transform="scale(1.64544)"
         id="g22"><path
           id="path24"
           style="fill:#171514;fill-opacity:1;fill-rule:nonzero;stroke:none"
           d="m 3682.59,16295.9 c 792.61,4.1 1585.21,3 2377.8,-3.1 -136.48,-205.4 -267.06,-416.7 -400.13,-624.4 -70.54,-110 -138.21,-230.4 -222.32,-330.7 l -572.74,5.8 -2375.52,3.1 -4.01,944.3 1196.92,5" /></g><g
         transform="scale(1.58902)"
         id="g26"><path
           id="path28"
           style="fill:#171514;fill-opacity:1;fill-rule:nonzero;stroke:none"
           d="m 13449.7,15569.6 c 950.1,6 1900.2,6.4 2850.3,1.1 l -1.3,-4430.7 c -87,59.7 -1311,2037.2 -1481.3,2303.6 -453.8,710 -919.6,1412.2 -1367.7,2126" /></g><g
         transform="scale(1.51811)"
         id="g30"><path
           id="path32"
           style="fill:#171514;fill-opacity:1;fill-rule:nonzero;stroke:none"
           d="m 2695.04,16295.8 c 994.09,-3.5 1989.37,4.2 2983.29,-8.7 -70.61,-138.6 -168.55,-269.6 -253.58,-400.1 -108.09,-165.7 -210.85,-335.2 -316.88,-502.3 l -1249.36,-1957 c -380.66,-609 -784.98,-1203.4 -1163.66,-1813.7 -5.35,382.1 6.44,764.3 5.76,1146.4 l -5.57,3535.4" /></g><g
         transform="scale(1.45959)"
         id="g34"><path
           id="path36"
           style="fill:#171514;fill-opacity:1;fill-rule:nonzero;stroke:none"
           d="m 14253.9,13594.6 c 9.1,0.7 18.2,1.1 27.3,1.2 373.1,4.4 766.5,-186.1 1025,-450.1 465.1,-475.1 763.5,-1204.9 886.9,-1852 106.9,-560.2 88,-1123.3 87.4,-1690.38 l -1.4,-1752.14 -1.2,-3640.54 -2.6,-1994.47 -1986.5,-2.46 -410.4,-1.1 c -2.2,350.24 -1.4,700.4 2.4,1050.57 285.9,-1.71 585.6,-28.98 840.7,124.55 178.4,107.36 347.9,306.87 391.8,514.6 31.4,148.6 9,508.57 8.3,673.55 l 1.8,1263.98 3.2,3249.34 0.5,1037.1 c -1.1,312.4 -0.4,621.4 -42.6,931.6 -69.3,509.7 -237.4,1020.9 -511.7,1457.3 -260.6,414.7 -599.1,711.3 -1081.3,821.2 235,160.9 479.4,240.4 762.4,258.2" /></g><g
         transform="scale(1.21831)"
         id="g38"><path
           id="path40"
           style="fill:#171514;fill-opacity:1;fill-rule:nonzero;stroke:none"
           d="m 7341.43,16250.9 c 392.25,49.1 756.28,-123.5 1095.61,-293.9 -347.62,-78.7 -620.85,-228.6 -876.86,-478.4 -715.57,-697.9 -1058.02,-1952 -1072.79,-2933.2 -10.03,-665.9 11.61,-1333 13.17,-1999 l -7.62,-3386.38 -1.78,-1627.51 c -0.17,-233.93 -23.49,-568.32 11.52,-788.71 31.86,-200.36 135.22,-393.75 276.91,-537.8 341.18,-346.96 783.1,-293.03 1230.61,-297.13 -4.59,-416.73 -5.81,-836.24 6.43,-1252.8 l -255.39,-0.83 -2650.15,2.06 -1.27,6847.37 -1.98,1926.33 c -0.74,641.5 -15.09,1272 90.09,1907.4 124,749.1 432.73,1660.4 922.06,2245.3 331.97,396.8 702.88,622.6 1221.44,667.2" /></g><g
         transform="scale(1.70368)"
         id="g42"><path
           id="path44"
           style="fill:#171514;fill-opacity:1;fill-rule:nonzero;stroke:none"
           d="m 6145.19,15660.4 c 23.47,-19 629.52,-997.3 698.07,-1106 l 1950.55,-3072.2 c 466.94,711.9 926.71,1428.3 1379.39,2149.3 l 1288.7,2011.2 c 80.5,-116.4 151.2,-238.5 226.9,-358 l 305.5,-473.3 950.1,-1484.9 1585.2,-2472.6 c 226,-354.7 457.8,-706.7 678,-1064.94 8.7,-476.85 -1.1,-955.06 -0.7,-1432.03 l 3,-3114.21 0.3,-1185.84 c 0.2,-197.75 -17.9,-417.45 10.6,-612.33 3,-20.89 6.8,-41.61 11.4,-62.21 4.7,-20.55 10.2,-40.92 16.5,-61.11 6.3,-20.13 13.4,-39.97 21.2,-59.57 7.9,-19.61 16.6,-38.86 26,-57.7 9.4,-18.9 19.5,-37.39 30.4,-55.47 11,-18.08 22.5,-35.69 34.8,-52.89 12.3,-17.14 25.3,-33.75 38.9,-49.89 13.7,-16.08 27.9,-31.64 42.8,-46.66 240.3,-239.07 543.3,-218.65 857.2,-219.41 l -3.4,-879.98 -2067.5,1.58 4.6,4809.61 -0.5,1484.55 c 0.2,435.65 27.1,898.53 -33.8,1329.66 -19.6,138.34 -53.4,275.28 -88.6,410.4 -183.2,703.74 -530.7,1429.74 -1183.1,1809.04 -9.5,5.6 -19.1,11.1 -28.7,16.5 -9.7,5.4 -19.4,10.6 -29.2,15.8 -9.7,5.1 -19.6,10.1 -29.4,15 -10,4.9 -19.9,9.7 -29.9,14.3 -10,4.7 -20.1,9.2 -30.2,13.6 -10.1,4.4 -20.4,8.7 -30.6,12.8 -10.2,4.2 -20.5,8.2 -30.8,12.1 -10.3,3.9 -20.7,7.6 -31.2,11.3 -10.3,3.6 -20.8,7.1 -31.4,10.5 -10.5,3.3 -21,6.6 -31.6,9.7 -10.6,3.1 -21.2,6.1 -31.9,8.9 -10.6,2.9 -21.3,5.6 -32.1,8.2 -10.7,2.6 -21.5,5 -32.3,7.3 -10.8,2.4 -21.6,4.5 -32.4,6.6 -10.9,2 -21.7,4 -32.6,5.7 -11,1.8 -21.9,3.5 -32.8,5 -10.9,1.5 -21.9,2.9 -32.9,4.1 -10.9,1.2 -21.9,2.3 -32.9,3.3 -11,1 -22,1.8 -33,2.5 -11,0.7 -22.1,1.3 -33.1,1.7 -11,0.4 -22.1,0.7 -33.1,0.8 -11,0.2 -22.1,0.2 -33.1,0.1 -11,-0.1 -22.1,-0.4 -33.1,-0.8 -11,-0.4 -22.1,-1 -33.1,-1.6 -11,-0.7 -22,-1.5 -33,-2.4 -11,-1 -22,-2.1 -33,-3.3 -11,-1.2 -21.9,-2.6 -32.9,-4 -10.9,-1.5 -21.8,-3.1 -32.7,-4.9 -10.9,-1.8 -21.8,-3.7 -32.6,-5.7 -10.9,-2 -21.7,-4.2 -32.5,-6.5 -10.8,-2.3 -21.6,-4.7 -32.3,-7.3 -10.7,-2.5 -21.5,-5.2 -32.2,-8 -719.8,-195.2 -1350.7,-982.6 -1708.4,-1604.7 C 9968.39,9872.42 9766.01,9455.79 9604,9015.86 9206.45,7936.14 9015.39,6712.25 8970.02,5564.79 c -9.15,-230.91 -5.69,-463.47 -7.04,-694.61 -100.02,2.7 -200.04,3.99 -300.06,3.81 -6.05,206.97 -1.23,414.28 -6.11,621.31 -10.09,305.93 -29.22,611.26 -57.46,916.02 -161.53,1581.69 -735.58,3628.18 -1869.9,4790.48 -365.56,374.6 -885.56,718.2 -1424.25,721.5 -393.39,2.5 -734.6,-172.1 -1010.92,-444.3 -497.59,-490.1 -744.47,-1229.1 -860.97,-1903 -67.61,-391.03 -53.79,-795.04 -53.79,-1190.42 l 0.33,-1361.41 -0.3,-5124.04 c -688.3,-13.85 -1379.77,-2.11 -2068.37,-0.88 -8.8,293.19 -5.78,587.67 -3.48,881.03 316.32,5.29 614.74,-12.32 856,229.39 106.66,106.83 195.03,253.04 220.34,403.48 31.25,185.66 13.48,411.11 13.21,601.23 l -0.86,1111.07 2.26,4632.34 c 1237.34,1974.81 2486.19,3942.31 3746.54,5902.61" /></g></g></g></svg>